<mxfile host="app.diagrams.net" agent="Mozilla/5.0 (Windows NT 10.0; Win64; x64) AppleWebKit/537.36 (KHTML, like Gecko) Chrome/131.0.0.0 Safari/537.36" version="25.0.3">
  <diagram name="Page-1" id="edf60f1a-56cd-e834-aa8a-f176f3a09ee4">
    <mxGraphModel dx="1710" dy="880" grid="1" gridSize="10" guides="1" tooltips="1" connect="1" arrows="1" fold="1" page="1" pageScale="1" pageWidth="1100" pageHeight="850" background="none" math="0" shadow="0">
      <root>
        <mxCell id="0" />
        <mxCell id="1" parent="0" />
        <mxCell id="UNcPKgn8qsj4iqdXUOni-1" value="用戶管理系統" style="text;html=1;align=center;verticalAlign=middle;whiteSpace=wrap;rounded=0;" parent="1" vertex="1">
          <mxGeometry x="80" y="50" width="90" height="30" as="geometry" />
        </mxCell>
        <mxCell id="zo9KFmglwKw83RBjEvFa-3" value="" style="edgeStyle=orthogonalEdgeStyle;rounded=0;orthogonalLoop=1;jettySize=auto;html=1;" edge="1" parent="1" source="zo9KFmglwKw83RBjEvFa-1" target="zo9KFmglwKw83RBjEvFa-2">
          <mxGeometry relative="1" as="geometry" />
        </mxCell>
        <mxCell id="zo9KFmglwKw83RBjEvFa-1" value="用戶訪問網站" style="strokeWidth=2;html=1;shape=mxgraph.flowchart.terminator;whiteSpace=wrap;" vertex="1" parent="1">
          <mxGeometry x="210" y="60" width="100" height="60" as="geometry" />
        </mxCell>
        <mxCell id="zo9KFmglwKw83RBjEvFa-5" value="" style="rounded=0;orthogonalLoop=1;jettySize=auto;html=1;entryX=0;entryY=0.5;entryDx=0;entryDy=0;" edge="1" parent="1" source="zo9KFmglwKw83RBjEvFa-2" target="zo9KFmglwKw83RBjEvFa-79">
          <mxGeometry relative="1" as="geometry">
            <mxPoint x="370" y="230" as="targetPoint" />
          </mxGeometry>
        </mxCell>
        <mxCell id="zo9KFmglwKw83RBjEvFa-14" value="否" style="edgeLabel;html=1;align=center;verticalAlign=middle;resizable=0;points=[];" vertex="1" connectable="0" parent="zo9KFmglwKw83RBjEvFa-5">
          <mxGeometry x="-0.0303" y="1" relative="1" as="geometry">
            <mxPoint as="offset" />
          </mxGeometry>
        </mxCell>
        <mxCell id="zo9KFmglwKw83RBjEvFa-77" value="" style="rounded=0;orthogonalLoop=1;jettySize=auto;html=1;edgeStyle=orthogonalEdgeStyle;" edge="1" parent="1" source="zo9KFmglwKw83RBjEvFa-2" target="zo9KFmglwKw83RBjEvFa-76">
          <mxGeometry relative="1" as="geometry" />
        </mxCell>
        <mxCell id="zo9KFmglwKw83RBjEvFa-78" value="是" style="edgeLabel;html=1;align=center;verticalAlign=middle;resizable=0;points=[];" vertex="1" connectable="0" parent="zo9KFmglwKw83RBjEvFa-77">
          <mxGeometry x="-0.3429" y="-1" relative="1" as="geometry">
            <mxPoint as="offset" />
          </mxGeometry>
        </mxCell>
        <mxCell id="zo9KFmglwKw83RBjEvFa-2" value="是否已登入&lt;br&gt;(Token是否合法)" style="rhombus;whiteSpace=wrap;html=1;strokeWidth=2;" vertex="1" parent="1">
          <mxGeometry x="205" y="176.25" width="110" height="107.5" as="geometry" />
        </mxCell>
        <mxCell id="zo9KFmglwKw83RBjEvFa-40" value="" style="rounded=0;orthogonalLoop=1;jettySize=auto;html=1;exitX=1;exitY=0.5;exitDx=0;exitDy=0;entryX=0;entryY=0.5;entryDx=0;entryDy=0;" edge="1" parent="1" source="zo9KFmglwKw83RBjEvFa-79" target="zo9KFmglwKw83RBjEvFa-9">
          <mxGeometry relative="1" as="geometry">
            <mxPoint x="490" y="230" as="sourcePoint" />
            <mxPoint x="570" y="230" as="targetPoint" />
          </mxGeometry>
        </mxCell>
        <mxCell id="zo9KFmglwKw83RBjEvFa-20" value="" style="rounded=0;orthogonalLoop=1;jettySize=auto;html=1;entryX=0;entryY=0.5;entryDx=0;entryDy=0;" edge="1" parent="1" source="zo9KFmglwKw83RBjEvFa-9" target="zo9KFmglwKw83RBjEvFa-84">
          <mxGeometry relative="1" as="geometry">
            <mxPoint x="820" y="230" as="targetPoint" />
          </mxGeometry>
        </mxCell>
        <mxCell id="zo9KFmglwKw83RBjEvFa-21" value="否" style="edgeLabel;html=1;align=center;verticalAlign=middle;resizable=0;points=[];" vertex="1" connectable="0" parent="zo9KFmglwKw83RBjEvFa-20">
          <mxGeometry x="-0.0593" y="-3" relative="1" as="geometry">
            <mxPoint as="offset" />
          </mxGeometry>
        </mxCell>
        <mxCell id="zo9KFmglwKw83RBjEvFa-82" value="" style="rounded=0;orthogonalLoop=1;jettySize=auto;html=1;entryX=0.399;entryY=-0.031;entryDx=0;entryDy=0;entryPerimeter=0;" edge="1" parent="1" source="zo9KFmglwKw83RBjEvFa-9" target="zo9KFmglwKw83RBjEvFa-122">
          <mxGeometry relative="1" as="geometry">
            <mxPoint x="690" y="330" as="targetPoint" />
          </mxGeometry>
        </mxCell>
        <mxCell id="zo9KFmglwKw83RBjEvFa-83" value="是" style="edgeLabel;html=1;align=center;verticalAlign=middle;resizable=0;points=[];" vertex="1" connectable="0" parent="zo9KFmglwKw83RBjEvFa-82">
          <mxGeometry x="-0.1524" y="1" relative="1" as="geometry">
            <mxPoint as="offset" />
          </mxGeometry>
        </mxCell>
        <mxCell id="zo9KFmglwKw83RBjEvFa-9" value="是否已註冊" style="rhombus;whiteSpace=wrap;html=1;strokeWidth=2;" vertex="1" parent="1">
          <mxGeometry x="600" y="190" width="80" height="80" as="geometry" />
        </mxCell>
        <mxCell id="zo9KFmglwKw83RBjEvFa-76" value="登入成功，跳轉主頁" style="rounded=1;whiteSpace=wrap;html=1;strokeWidth=2;" vertex="1" parent="1">
          <mxGeometry x="30" y="360" width="120" height="60" as="geometry" />
        </mxCell>
        <mxCell id="zo9KFmglwKw83RBjEvFa-79" value="進入登入頁面" style="rounded=1;whiteSpace=wrap;html=1;strokeWidth=2;" vertex="1" parent="1">
          <mxGeometry x="390" y="200" width="120" height="60" as="geometry" />
        </mxCell>
        <mxCell id="zo9KFmglwKw83RBjEvFa-81" value="輸入帳號與密碼" style="rounded=1;whiteSpace=wrap;html=1;strokeWidth=2;" vertex="1" parent="1">
          <mxGeometry x="370" y="360" width="120" height="60" as="geometry" />
        </mxCell>
        <mxCell id="zo9KFmglwKw83RBjEvFa-99" value="" style="rounded=0;orthogonalLoop=1;jettySize=auto;html=1;" edge="1" parent="1" source="zo9KFmglwKw83RBjEvFa-84" target="zo9KFmglwKw83RBjEvFa-98">
          <mxGeometry relative="1" as="geometry" />
        </mxCell>
        <mxCell id="zo9KFmglwKw83RBjEvFa-102" style="rounded=0;orthogonalLoop=1;jettySize=auto;html=1;exitX=1;exitY=0.5;exitDx=0;exitDy=0;entryX=0;entryY=0.5;entryDx=0;entryDy=0;" edge="1" parent="1" source="zo9KFmglwKw83RBjEvFa-84" target="zo9KFmglwKw83RBjEvFa-101">
          <mxGeometry relative="1" as="geometry" />
        </mxCell>
        <mxCell id="zo9KFmglwKw83RBjEvFa-105" style="rounded=0;orthogonalLoop=1;jettySize=auto;html=1;exitX=1;exitY=1;exitDx=0;exitDy=0;entryX=0;entryY=0.5;entryDx=0;entryDy=0;" edge="1" parent="1" source="zo9KFmglwKw83RBjEvFa-84" target="zo9KFmglwKw83RBjEvFa-104">
          <mxGeometry relative="1" as="geometry" />
        </mxCell>
        <mxCell id="zo9KFmglwKw83RBjEvFa-84" value="選擇註冊方式" style="rounded=1;whiteSpace=wrap;html=1;strokeWidth=2;" vertex="1" parent="1">
          <mxGeometry x="760" y="200" width="120" height="60" as="geometry" />
        </mxCell>
        <mxCell id="zo9KFmglwKw83RBjEvFa-94" value="" style="rounded=0;orthogonalLoop=1;jettySize=auto;html=1;entryX=1;entryY=0.5;entryDx=0;entryDy=0;" edge="1" parent="1" source="zo9KFmglwKw83RBjEvFa-91" target="zo9KFmglwKw83RBjEvFa-76">
          <mxGeometry relative="1" as="geometry">
            <mxPoint x="440" y="510" as="targetPoint" />
          </mxGeometry>
        </mxCell>
        <mxCell id="zo9KFmglwKw83RBjEvFa-95" value="是" style="edgeLabel;html=1;align=center;verticalAlign=middle;resizable=0;points=[];" vertex="1" connectable="0" parent="zo9KFmglwKw83RBjEvFa-94">
          <mxGeometry x="-0.1895" y="1" relative="1" as="geometry">
            <mxPoint y="1" as="offset" />
          </mxGeometry>
        </mxCell>
        <mxCell id="zo9KFmglwKw83RBjEvFa-96" style="rounded=0;orthogonalLoop=1;jettySize=auto;html=1;exitX=0.5;exitY=1;exitDx=0;exitDy=0;exitPerimeter=0;edgeStyle=orthogonalEdgeStyle;entryX=0.403;entryY=0.052;entryDx=0;entryDy=0;entryPerimeter=0;" edge="1" parent="1" source="zo9KFmglwKw83RBjEvFa-91" target="zo9KFmglwKw83RBjEvFa-132">
          <mxGeometry relative="1" as="geometry">
            <mxPoint x="280" y="510" as="targetPoint" />
          </mxGeometry>
        </mxCell>
        <mxCell id="zo9KFmglwKw83RBjEvFa-97" value="否" style="edgeLabel;html=1;align=center;verticalAlign=middle;resizable=0;points=[];" vertex="1" connectable="0" parent="zo9KFmglwKw83RBjEvFa-96">
          <mxGeometry x="-0.0967" relative="1" as="geometry">
            <mxPoint as="offset" />
          </mxGeometry>
        </mxCell>
        <mxCell id="zo9KFmglwKw83RBjEvFa-91" value="帳號密碼&lt;div&gt;是否正確&lt;/div&gt;" style="strokeWidth=2;html=1;shape=mxgraph.flowchart.decision;whiteSpace=wrap;" vertex="1" parent="1">
          <mxGeometry x="230" y="340" width="100" height="100" as="geometry" />
        </mxCell>
        <mxCell id="zo9KFmglwKw83RBjEvFa-92" style="rounded=0;orthogonalLoop=1;jettySize=auto;html=1;exitX=0;exitY=0.5;exitDx=0;exitDy=0;entryX=1;entryY=0.5;entryDx=0;entryDy=0;entryPerimeter=0;" edge="1" parent="1" source="zo9KFmglwKw83RBjEvFa-81" target="zo9KFmglwKw83RBjEvFa-91">
          <mxGeometry relative="1" as="geometry" />
        </mxCell>
        <mxCell id="zo9KFmglwKw83RBjEvFa-108" value="" style="edgeStyle=orthogonalEdgeStyle;rounded=0;orthogonalLoop=1;jettySize=auto;html=1;" edge="1" parent="1" source="zo9KFmglwKw83RBjEvFa-98" target="zo9KFmglwKw83RBjEvFa-107">
          <mxGeometry relative="1" as="geometry" />
        </mxCell>
        <mxCell id="zo9KFmglwKw83RBjEvFa-98" value="Google註冊" style="whiteSpace=wrap;html=1;rounded=1;strokeWidth=2;" vertex="1" parent="1">
          <mxGeometry x="950" y="100" width="120" height="60" as="geometry" />
        </mxCell>
        <mxCell id="zo9KFmglwKw83RBjEvFa-110" value="" style="edgeStyle=orthogonalEdgeStyle;rounded=0;orthogonalLoop=1;jettySize=auto;html=1;" edge="1" parent="1" source="zo9KFmglwKw83RBjEvFa-101" target="zo9KFmglwKw83RBjEvFa-109">
          <mxGeometry relative="1" as="geometry" />
        </mxCell>
        <mxCell id="zo9KFmglwKw83RBjEvFa-101" value="Line註冊" style="whiteSpace=wrap;html=1;rounded=1;strokeWidth=2;" vertex="1" parent="1">
          <mxGeometry x="950" y="200" width="120" height="60" as="geometry" />
        </mxCell>
        <mxCell id="zo9KFmglwKw83RBjEvFa-104" value="網站註冊" style="whiteSpace=wrap;html=1;rounded=1;strokeWidth=2;" vertex="1" parent="1">
          <mxGeometry x="1040" y="310" width="120" height="60" as="geometry" />
        </mxCell>
        <mxCell id="zo9KFmglwKw83RBjEvFa-107" value="Google Oauth驗證" style="whiteSpace=wrap;html=1;rounded=1;strokeWidth=2;" vertex="1" parent="1">
          <mxGeometry x="1150" y="100" width="120" height="60" as="geometry" />
        </mxCell>
        <mxCell id="zo9KFmglwKw83RBjEvFa-115" style="rounded=0;orthogonalLoop=1;jettySize=auto;html=1;exitX=1;exitY=0.5;exitDx=0;exitDy=0;entryX=0;entryY=0.5;entryDx=0;entryDy=0;entryPerimeter=0;" edge="1" parent="1" source="zo9KFmglwKw83RBjEvFa-109" target="zo9KFmglwKw83RBjEvFa-113">
          <mxGeometry relative="1" as="geometry">
            <mxPoint x="1370" y="260" as="targetPoint" />
          </mxGeometry>
        </mxCell>
        <mxCell id="zo9KFmglwKw83RBjEvFa-109" value="Line Oauth驗證" style="whiteSpace=wrap;html=1;rounded=1;strokeWidth=2;" vertex="1" parent="1">
          <mxGeometry x="1150" y="200" width="120" height="60" as="geometry" />
        </mxCell>
        <mxCell id="zo9KFmglwKw83RBjEvFa-119" style="rounded=0;orthogonalLoop=1;jettySize=auto;html=1;entryX=0.5;entryY=1;entryDx=0;entryDy=0;exitX=0.5;exitY=0;exitDx=0;exitDy=0;exitPerimeter=0;" edge="1" parent="1" source="zo9KFmglwKw83RBjEvFa-113" target="zo9KFmglwKw83RBjEvFa-118">
          <mxGeometry relative="1" as="geometry" />
        </mxCell>
        <mxCell id="zo9KFmglwKw83RBjEvFa-121" value="否" style="edgeLabel;html=1;align=center;verticalAlign=middle;resizable=0;points=[];" vertex="1" connectable="0" parent="zo9KFmglwKw83RBjEvFa-119">
          <mxGeometry x="-0.1038" y="3" relative="1" as="geometry">
            <mxPoint x="-2" y="8" as="offset" />
          </mxGeometry>
        </mxCell>
        <mxCell id="zo9KFmglwKw83RBjEvFa-125" style="edgeStyle=orthogonalEdgeStyle;rounded=0;orthogonalLoop=1;jettySize=auto;html=1;exitX=0.5;exitY=1;exitDx=0;exitDy=0;exitPerimeter=0;entryX=1;entryY=0.5;entryDx=0;entryDy=0;" edge="1" parent="1" source="zo9KFmglwKw83RBjEvFa-113" target="zo9KFmglwKw83RBjEvFa-122">
          <mxGeometry relative="1" as="geometry" />
        </mxCell>
        <mxCell id="zo9KFmglwKw83RBjEvFa-126" value="是" style="edgeLabel;html=1;align=center;verticalAlign=middle;resizable=0;points=[];" vertex="1" connectable="0" parent="zo9KFmglwKw83RBjEvFa-125">
          <mxGeometry x="0.2356" relative="1" as="geometry">
            <mxPoint as="offset" />
          </mxGeometry>
        </mxCell>
        <mxCell id="zo9KFmglwKw83RBjEvFa-113" value="是否註冊成功" style="strokeWidth=2;html=1;shape=mxgraph.flowchart.decision;whiteSpace=wrap;" vertex="1" parent="1">
          <mxGeometry x="1380" y="180" width="100" height="100" as="geometry" />
        </mxCell>
        <mxCell id="zo9KFmglwKw83RBjEvFa-114" style="rounded=0;orthogonalLoop=1;jettySize=auto;html=1;exitX=1;exitY=0.5;exitDx=0;exitDy=0;entryX=0;entryY=0.5;entryDx=0;entryDy=0;entryPerimeter=0;" edge="1" parent="1" source="zo9KFmglwKw83RBjEvFa-107" target="zo9KFmglwKw83RBjEvFa-113">
          <mxGeometry relative="1" as="geometry" />
        </mxCell>
        <mxCell id="zo9KFmglwKw83RBjEvFa-116" style="rounded=0;orthogonalLoop=1;jettySize=auto;html=1;exitX=1;exitY=0.5;exitDx=0;exitDy=0;entryX=0;entryY=0.5;entryDx=0;entryDy=0;entryPerimeter=0;" edge="1" parent="1" source="zo9KFmglwKw83RBjEvFa-104" target="zo9KFmglwKw83RBjEvFa-113">
          <mxGeometry relative="1" as="geometry" />
        </mxCell>
        <mxCell id="zo9KFmglwKw83RBjEvFa-118" value="註冊失敗，顯示錯誤" style="whiteSpace=wrap;html=1;rounded=1;strokeWidth=2;" vertex="1" parent="1">
          <mxGeometry x="1370" y="50" width="120" height="60" as="geometry" />
        </mxCell>
        <mxCell id="zo9KFmglwKw83RBjEvFa-122" value="登入" style="rounded=1;whiteSpace=wrap;html=1;strokeWidth=2;" vertex="1" parent="1">
          <mxGeometry x="760" y="360" width="120" height="60" as="geometry" />
        </mxCell>
        <mxCell id="zo9KFmglwKw83RBjEvFa-127" style="rounded=0;orthogonalLoop=1;jettySize=auto;html=1;entryX=1;entryY=0.5;entryDx=0;entryDy=0;" edge="1" parent="1" source="zo9KFmglwKw83RBjEvFa-123" target="zo9KFmglwKw83RBjEvFa-81">
          <mxGeometry relative="1" as="geometry" />
        </mxCell>
        <mxCell id="zo9KFmglwKw83RBjEvFa-128" value="否" style="edgeLabel;html=1;align=center;verticalAlign=middle;resizable=0;points=[];" vertex="1" connectable="0" parent="zo9KFmglwKw83RBjEvFa-127">
          <mxGeometry x="-0.0115" y="-2" relative="1" as="geometry">
            <mxPoint as="offset" />
          </mxGeometry>
        </mxCell>
        <mxCell id="zo9KFmglwKw83RBjEvFa-130" value="" style="rounded=0;orthogonalLoop=1;jettySize=auto;html=1;entryX=0.634;entryY=-0.004;entryDx=0;entryDy=0;exitX=0.5;exitY=1;exitDx=0;exitDy=0;exitPerimeter=0;entryPerimeter=0;" edge="1" parent="1" source="zo9KFmglwKw83RBjEvFa-123" target="zo9KFmglwKw83RBjEvFa-129">
          <mxGeometry relative="1" as="geometry" />
        </mxCell>
        <mxCell id="zo9KFmglwKw83RBjEvFa-131" value="是" style="edgeLabel;html=1;align=center;verticalAlign=middle;resizable=0;points=[];" vertex="1" connectable="0" parent="zo9KFmglwKw83RBjEvFa-130">
          <mxGeometry x="0.1881" y="-6" relative="1" as="geometry">
            <mxPoint as="offset" />
          </mxGeometry>
        </mxCell>
        <mxCell id="zo9KFmglwKw83RBjEvFa-123" value="第三方登入" style="strokeWidth=2;html=1;shape=mxgraph.flowchart.decision;whiteSpace=wrap;" vertex="1" parent="1">
          <mxGeometry x="590" y="340" width="100" height="100" as="geometry" />
        </mxCell>
        <mxCell id="zo9KFmglwKw83RBjEvFa-124" style="rounded=0;orthogonalLoop=1;jettySize=auto;html=1;exitX=0;exitY=0.5;exitDx=0;exitDy=0;entryX=1;entryY=0.5;entryDx=0;entryDy=0;entryPerimeter=0;" edge="1" parent="1" source="zo9KFmglwKw83RBjEvFa-122" target="zo9KFmglwKw83RBjEvFa-123">
          <mxGeometry relative="1" as="geometry" />
        </mxCell>
        <mxCell id="zo9KFmglwKw83RBjEvFa-137" style="edgeStyle=orthogonalEdgeStyle;rounded=0;orthogonalLoop=1;jettySize=auto;html=1;exitX=0;exitY=0.5;exitDx=0;exitDy=0;entryX=0.5;entryY=1;entryDx=0;entryDy=0;" edge="1" parent="1" source="zo9KFmglwKw83RBjEvFa-129" target="zo9KFmglwKw83RBjEvFa-76">
          <mxGeometry relative="1" as="geometry" />
        </mxCell>
        <mxCell id="zo9KFmglwKw83RBjEvFa-138" style="edgeStyle=orthogonalEdgeStyle;rounded=0;orthogonalLoop=1;jettySize=auto;html=1;exitX=0;exitY=0.5;exitDx=0;exitDy=0;entryX=0.5;entryY=1;entryDx=0;entryDy=0;" edge="1" parent="1" source="zo9KFmglwKw83RBjEvFa-129" target="zo9KFmglwKw83RBjEvFa-132">
          <mxGeometry relative="1" as="geometry" />
        </mxCell>
        <mxCell id="zo9KFmglwKw83RBjEvFa-129" value="第三方快速登入" style="rounded=1;whiteSpace=wrap;html=1;strokeWidth=2;" vertex="1" parent="1">
          <mxGeometry x="560" y="670" width="120" height="60" as="geometry" />
        </mxCell>
        <mxCell id="zo9KFmglwKw83RBjEvFa-134" style="edgeStyle=orthogonalEdgeStyle;rounded=0;orthogonalLoop=1;jettySize=auto;html=1;entryX=0.5;entryY=1;entryDx=0;entryDy=0;" edge="1" parent="1" source="zo9KFmglwKw83RBjEvFa-132" target="zo9KFmglwKw83RBjEvFa-81">
          <mxGeometry relative="1" as="geometry" />
        </mxCell>
        <mxCell id="zo9KFmglwKw83RBjEvFa-139" style="edgeStyle=orthogonalEdgeStyle;rounded=0;orthogonalLoop=1;jettySize=auto;html=1;exitX=1;exitY=0.5;exitDx=0;exitDy=0;entryX=0.25;entryY=0;entryDx=0;entryDy=0;" edge="1" parent="1" source="zo9KFmglwKw83RBjEvFa-132" target="zo9KFmglwKw83RBjEvFa-129">
          <mxGeometry relative="1" as="geometry" />
        </mxCell>
        <mxCell id="zo9KFmglwKw83RBjEvFa-132" value="登入失敗，顯示錯誤" style="rounded=1;whiteSpace=wrap;html=1;strokeWidth=2;" vertex="1" parent="1">
          <mxGeometry x="230" y="520" width="120" height="60" as="geometry" />
        </mxCell>
      </root>
    </mxGraphModel>
  </diagram>
</mxfile>
